PathFileType	4	(X/Y/Z)	s04c0301.trc
DataRate	CameraRate	NumFrames	NumMarkers	Units	OrigDataRate	OrigDataStartFrame	OrigNumFrames
200	200	4	50	mm	200	1500	2000
Frame#	Time	racr			lacr			c7			jug			rlel			rdr			llel			ldr			s2			lic			ric			lasi			rasi			rpsi			lpsi			rgt			lgt			rth1			rth2			rth3			rth4			rlfc			rmfc			rsh1			rsh2			rsh3			rsh4			rlmal			rmmal			rcal			rtoe			rmt5			lth1			lth2			lth4			lth3			llfc			lmfc			lsh1			lsh2			lsh3			lsh4			llmal			lmmal			lcal			ltoe			lmt5			SBIKE			LBIKE			RBIKE			
		X1	Y1	Z1	X2	Y2	Z2	X3	Y3	Z3	X4	Y4	Z4	X5	Y5	Z5	X6	Y6	Z6	X7	Y7	Z7	X8	Y8	Z8	X9	Y9	Z9	X10	Y10	Z10	X11	Y11	Z11	X12	Y12	Z12	X13	Y13	Z13	X14	Y14	Z14	X15	Y15	Z15	X16	Y16	Z16	X17	Y17	Z17	X18	Y18	Z18	X19	Y19	Z19	X20	Y20	Z20	X21	Y21	Z21	X22	Y22	Z22	X23	Y23	Z23	X24	Y24	Z24	X25	Y25	Z25	X26	Y26	Z26	X27	Y27	Z27	X28	Y28	Z28	X29	Y29	Z29	X30	Y30	Z30	X31	Y31	Z31	X32	Y32	Z32	X33	Y33	Z33	X34	Y34	Z34	X35	Y35	Z35	X36	Y36	Z36	X37	Y37	Z37	X38	Y38	Z38	X39	Y39	Z39	X40	Y40	Z40	X41	Y41	Z41	X42	Y42	Z42	X43	Y43	Z43	X44	Y44	Z44	X45	Y45	Z45	X46	Y46	Z46	X47	Y47	Z47	X48	Y48	Z48	X49	Y49	Z49	X50	Y50	Z50	
1500	7.5000	855.419320	1240.797460	-167.196344	855.745313	1190.507510	-462.249397	874.544917	1290.312440	-323.657265	799.542921	1159.333819	-304.584872	587.296680	1139.213976	-4.081827	707.563565	910.591075	-109.112901	597.312431	1120.887408	-595.718948	698.576207	914.589773	-479.167010	270.169760	1291.483393	-244.602384	391.983014	1272.852014	-431.317630	443.890939	1233.519603	-111.381540	423.483035	1216.444171	-399.447610	455.329314	1174.383336	-163.393975	322.582041	1318.867214	-208.219614	307.150526	1331.762407	-277.443429	370.984198	1186.236302	-91.569049	343.189834	1204.713582	-454.186921	372.948414	1021.590168	-69.322099	387.406042	934.909880	-77.934846	359.040173	854.188457	-87.254950	420.740366	934.203858	-95.556565	346.494582	708.914889	-120.020779	314.967372	701.831343	-231.169446	270.833185	611.113446	-91.988412	239.304019	527.574499	-108.435406	170.451544	474.754834	-112.239525	265.290053	512.736624	-133.238620	92.875186	343.166324	-116.686237	111.709231	341.618692	-202.113395	25.449106	360.976465	-152.533199	239.904786	145.601339	-169.559687	178.888652	171.847448	-108.931826	396.088736	1132.599423	-460.688759	472.980384	1091.959824	-464.848043	497.105863	1117.832003	-455.025878	519.545318	1017.283167	-473.536160	619.092438	892.604686	-459.897976	649.451007	861.566838	-346.818098	557.243290	800.326979	-480.534638	512.838257	726.770966	-462.283823	435.517973	682.490859	-459.135468	534.639676	708.610838	-435.304545	324.981318	580.438578	-451.154424	328.292182	585.841243	-362.238206	244.591406	607.029199	-410.361252	477.255101	413.288908	-415.742716	399.413094	428.579406	-478.162103	-185.602358	935.258104	-286.305761	-17.454071	79.501198	-485.477414	-17.491728	79.435477	-84.810373	
1501	7.5050	855.525466	1242.224140	-167.448652	854.920319	1189.764302	-461.860140	874.547852	1290.671796	-323.558252	798.968147	1160.188650	-303.463982	588.461854	1139.724688	-3.463274	707.702530	910.626824	-108.990988	596.868199	1121.300661	-596.464223	698.488733	915.402414	-479.813727	270.365775	1294.298882	-247.062877	392.784041	1273.503390	-432.777657	442.747053	1237.080810	-112.391152	423.748971	1217.094291	-400.335169	454.545392	1176.911908	-163.448239	322.714651	1321.248102	-210.627604	307.494531	1334.327065	-279.865692	370.286851	1189.910394	-92.389224	343.409403	1205.976361	-455.504442	374.680373	1023.934833	-70.340049	391.433594	937.634790	-79.615003	365.629595	856.253740	-88.626209	424.850680	937.915172	-96.847645	355.130052	711.235491	-120.793340	323.390490	704.567432	-231.643774	275.882633	615.078138	-92.574933	241.211448	532.218825	-109.418465	171.396678	481.830897	-113.525794	267.084486	517.110951	-134.320568	89.204141	352.943951	-118.668901	109.513132	350.230156	-203.890324	22.706201	372.018715	-156.012697	231.491761	150.417585	-167.231138	170.367656	179.303885	-108.293880	394.753877	1132.220682	-461.589322	471.053168	1090.278369	-465.354537	495.362603	1116.180564	-455.925878	516.428007	1014.926215	-473.505566	615.901197	887.341484	-458.940834	644.527752	857.800810	-346.350674	553.697016	794.074189	-479.684242	510.652651	719.790643	-461.930578	434.181105	674.054306	-458.996112	532.706826	702.179420	-434.867983	325.572874	570.910968	-451.699315	327.534177	576.188093	-361.846601	243.738037	593.767708	-410.846404	484.733238	410.542088	-415.977303	406.271700	422.216426	-478.356398	-185.527179	935.303154	-286.332669	-17.452437	79.514958	-485.461707	-17.452412	79.449935	-84.789824	
1502	7.5100	855.682271	1243.753636	-167.588952	854.148254	1189.366183	-461.498523	874.528023	1291.420246	-323.327256	798.564630	1161.324284	-302.257879	589.669955	1140.196373	-2.705123	707.120216	910.209381	-110.188677	596.514638	1121.548543	-597.006055	698.464352	916.136700	-480.541588	270.548089	1296.998228	-249.646037	393.710511	1273.996816	-434.264457	441.313341	1240.563090	-113.515533	424.036152	1217.584392	-401.212420	453.395068	1179.482289	-163.726078	321.218796	1323.970663	-210.844705	307.604024	1336.779301	-282.013642	369.644620	1193.578714	-93.303271	343.156554	1206.609823	-456.469225	376.854984	1026.303260	-71.342907	395.988180	940.577365	-81.417357	372.485522	858.477720	-90.060913	429.633382	942.191628	-98.187564	364.771903	713.592507	-121.522068	332.441986	707.241223	-231.934167	281.415006	619.304591	-93.140037	244.323322	537.539939	-110.175583	172.881909	489.392181	-114.856081	269.802901	521.560150	-135.189308	86.419224	362.904313	-120.918946	107.802603	359.384048	-205.714506	20.651173	383.138085	-159.749973	223.930654	156.316808	-165.869198	162.712435	187.337220	-108.160745	393.424816	1131.343849	-462.474998	469.005186	1088.195685	-466.051492	493.512755	1113.885225	-456.888261	513.155624	1012.016455	-473.471377	611.433180	882.865813	-457.518394	638.921327	853.059931	-345.905902	549.849886	786.476500	-479.832832	508.324915	711.607315	-461.645941	432.480258	664.587107	-458.788832	530.314389	694.817005	-434.168674	325.561271	560.057910	-451.824814	326.581486	565.751862	-361.706018	242.801182	579.685466	-410.980786	491.530948	407.135390	-416.316635	412.619951	415.351042	-478.614036	-185.456128	935.355803	-286.402946	-17.454528	79.515621	-485.482295	-17.453195	79.468967	-84.799193	
1503	7.5150	855.886317	1245.344842	-167.633136	853.480992	1189.219026	-461.083259	874.631960	1291.992145	-323.153880	798.080593	1162.372030	-301.352862	590.921594	1140.671904	-1.787191	707.319358	910.301993	-110.068358	596.424499	1121.823534	-597.821101	698.476613	916.771288	-481.253288	270.723800	1299.612146	-252.528981	396.552649	1274.648918	-436.884380	440.140847	1243.906685	-114.330542	424.332278	1217.901190	-402.068656	452.416593	1181.865990	-164.298689	320.994706	1325.700052	-213.244344	307.420030	1338.810665	-283.821814	369.002741	1197.143124	-94.265105	342.864732	1206.752187	-457.589831	379.312220	1028.818103	-72.953307	401.064786	943.663178	-83.179496	380.118150	860.934417	-91.327493	434.579743	946.284881	-99.858860	374.834940	716.118030	-121.986953	342.038662	709.836708	-232.155820	287.160768	623.848572	-93.520755	247.860712	543.254607	-110.814068	174.871854	497.347457	-116.039464	272.961442	526.587434	-135.851118	84.243516	373.381868	-122.670609	106.377549	368.898348	-207.383861	19.342286	394.685611	-162.889752	216.914817	162.615284	-164.686977	155.709281	195.708058	-108.117087	392.113495	1130.084671	-463.389670	466.957331	1085.433374	-466.771330	492.213404	1110.316464	-457.749131	509.661658	1008.320188	-473.478828	605.552319	877.103423	-456.696741	632.664288	847.558381	-345.538017	545.996375	777.733657	-479.795115	505.536617	702.692290	-460.937381	430.595588	654.340946	-458.415035	527.669946	686.510131	-433.181928	325.452007	548.476904	-451.880511	325.080654	553.918246	-361.952420	242.274478	564.783064	-411.026238	497.702345	402.796072	-416.574022	418.515776	407.668291	-478.831720	-185.395631	935.383508	-286.531171	-17.442497	79.524808	-485.489063	-17.425744	79.501066	-84.808179	
